PathFileType	4	(X/Y/Z)	0_coords_data.trc
DataRate	CameraRate	NumFrames	NumMarkers	Units	OrigDataRate	OrigDataStartFrame	OrigNumFrames
30.0	30.0	9	21	m	30.0	10	78
Frame#	Time	THUMB_TIP	THUMB_IP	THUMB_MCP	THUMB_CMC	INDEX_TIP	INDEX_DIP	INDEX_PIP	INDEX_MCP	MIDDLE_TIP	MIDDLE_DIP	MIDDLE_PIP	MIDDLE_MCP	RING_TIP	RING_DIP	RING_PIP	RING_MCP	PINKY_TIP	PINKY_DIP	PINKY_PIP	PINKY_MCP	WRIST
X1	Y1	Z1	X2	Y2	Z2	X3	Y3	Z3	X4	Y4	Z4	X5	Y5	Z5	X6	Y6	Z6	X7	Y7	Z7	X8	Y8	Z8	X9	Y9	Z9	X10	Y10	Z10	X11	Y11	Z11	X12	Y12	Z12	X13	Y13	Z13	X14	Y14	Z14	X15	Y15	Z15	X16	Y16	Z16	X17	Y17	Z17	X18	Y18	Z18	X19	Y19	Z19	X20	Y20	Z20	X21	Y21	Z21
8	0.2999999999999987	0.5273637387773139	-0.015272021606331787	-0.14909973756455525	0.5102806859890207	-0.01916797618471111	-0.134233976724437	0.48301950243731584	-0.025827508505819496	-0.12076926355911577	0.47584127894788686	-0.027717401661863872	-0.07678299966463897	0.568308463821697	0.019047206661938154	-0.15465861427726696	0.5524209545967169	0.024177248599361878	-0.1476393749775674	0.5300669768434415	0.028361367044342	-0.13692477445097528	0.49319817645513	0.022121856075793644	-0.11654350474567443	0.5865205850173671	0.017991022211525376	-0.1401530768933471	0.5711674443293011	0.022936552450810388	-0.13191761687797648	0.5462431532025956	0.03000966499977964	-0.11856994514464236	0.5069376899488846	0.027862480877846485	-0.0974366046666752	0.5888796835164698	0.00626595117075901	-0.11457612539977086	0.5774777141511849	0.01703937099010011	-0.10569195295720024	0.5588477016512269	0.029156230449779774	-0.09445432286514827	0.5213845602239504	0.022795903700640885	-0.08064200546204497	0.5834696860600663	-0.004831535417288091	-0.09415132457236536	0.5761804663487646	0.0055854216351004515	-0.08269033500910933	0.56227693849972	0.01572198665548319	-0.07065896011101908	0.527707025665225	0.009691763277474563	-0.0623258344293357	0.4622830810018609	-0.023011742144276925	-0.051989820119430985
9	0.33333333333333187	0.5273395485607386	-0.015318586126656375	-0.1491053060691639	0.5102538950797226	-0.019222242099893982	-0.13424455524125295	0.4829896038634395	-0.025869702314440968	-0.1207801689882626	0.47581315856280737	-0.027745495301872758	-0.07679301139067113	0.5682558263571849	0.01885025631359938	-0.15467955518194454	0.5523757711860597	0.024019789518210266	-0.14767243207695724	0.5300335897107294	0.028283227801306432	-0.13696449791907067	0.4931610151469734	0.022109236426892998	-0.11657010727975686	0.5864568094136757	0.01792880265026342	-0.1402155117420147	0.5711149256788973	0.022897098245538428	-0.1319727790430542	0.5462023416041051	0.029994162977832972	-0.11861596891106424	0.506904851629561	0.027865044497875746	-0.09746597937917728	0.5888224386983074	0.006206233891249302	-0.11463489024473861	0.5774517573965108	0.017006249658511496	-0.10574291261544466	0.5588366345205604	0.029141164731388836	-0.09450009199571924	0.5213835698444883	0.022787556194833636	-0.0806573885410401	0.5834218375993238	-0.004889458209839992	-0.09418796141514973	0.5761631414032499	0.00555575493588123	-0.08273331817000429	0.5622792482330925	0.01570208753226965	-0.0706875112529427	0.5277116985521618	0.009677847192750999	-0.062340266893987806	0.4622830810018609	-0.023011742144276925	-0.051989820119430985
10	0.3666666666666651	0.5272789841041454	-0.015365112522734314	-0.14911340555765368	0.5101902832904099	-0.019266505702540404	-0.1342555646729489	0.4829239814439884	-0.025911672299405497	-0.12079411807461743	0.47581108062556543	-0.02774237036052507	-0.07679474095906857	0.5682111136522858	0.018651342408771532	-0.15468724732184802	0.5523434563439321	0.023873729148859768	-0.14769123929715294	0.5300116241517298	0.028210890058826266	-0.13699132625169436	0.4931307407588622	0.022095156901020152	-0.11659440633460355	0.5864029992900933	0.017842707144631986	-0.1402494790670043	0.5710744780839382	0.022845739559339218	-0.13200289769713713	0.546173546133791	0.02997157080952373	-0.11863967701468053	0.5068790105476609	0.027874252430561963	-0.09748102276428872	0.5887576844207278	0.006152010218198001	-0.1146709395156208	0.5774235628865125	0.01698797222385673	-0.10577601869193964	0.55882403248784	0.02914997329253166	-0.09453666026032059	0.5213821664785333	0.022781008566472583	-0.08067073829099791	0.5833838903232947	-0.004949131634882198	-0.09420600378244343	0.5761519827751712	0.005522262362327446	-0.08275832187864313	0.5622866935809885	0.015680981785974213	-0.07070153150005143	0.5277190430616531	0.009659107496117092	-0.06235299758023943	0.4622830810018609	-0.023011742144276925	-0.051989820119430985
11	0.39999999999999825	0.5272658496382207	-0.015390080420609187	-0.14910131148206907	0.5101678284479202	-0.019288686803920818	-0.13425346518558418	0.4828956206398701	-0.025925799012434525	-0.12080001124965639	0.4758156530525349	-0.027731619258979934	-0.0767942948914439	0.5681932650849133	0.018449826080266907	-0.1546700590087124	0.5523339178847194	0.02372432649382361	-0.1476943331130729	0.530011013105657	0.028135284416838657	-0.1370059653505798	0.4931197075584671	0.022080983930297893	-0.11660956579961596	0.5863653376546882	0.0177944760379376	-0.14028382601562805	0.5710473431908482	0.022825501870402554	-0.13203471547698015	0.5461558259356769	0.029976305345920884	-0.11866729506801449	0.5068710334965744	0.027872108815457652	-0.09749123875486176	0.5887004854749044	0.006086069891017676	-0.1147030272134712	0.5774065138286959	0.016960522646844667	-0.10580401144115525	0.5588197971615178	0.029143083182492036	-0.09456572147651504	0.5213855238398731	0.0227701658409859	-0.08068112787645826	0.5833599834743921	-0.004987743248848209	-0.09423034048771917	0.5761456618594178	0.005493153392606143	-0.08278025886238283	0.5622943420293564	0.015660274702480992	-0.07071449729356205	0.5277251851728749	0.009641387485729513	-0.06237004752715991	0.462283081001861	-0.023011742144276925	-0.051989820119430985
12	0.43333333333333146	0.5272708347853369	-0.015376634186477167	-0.14908302239660703	0.5101656508220616	-0.0192836131921601	-0.13424563055600158	0.4828875820520073	-0.02590936809705957	-0.12079846222521956	0.47583089542658163	-0.02771557152223514	-0.07678902229402501	0.5682161584369215	0.018221005101209276	-0.15461630802946802	0.5523652110330937	0.023558404647626707	-0.1476693927080477	0.5300508615805753	0.02804224351424589	-0.13699349318954845	0.49314096502400373	0.022071343677371735	-0.11660614453109858	0.5863750830736625	0.017701371759085593	-0.14027914402776132	0.5710630512809712	0.022756288337707375	-0.13203356941086614	0.5461760429353767	0.02992726466864304	-0.11866856046708024	0.5068923167532693	0.027857087134799174	-0.09748717375073007	0.5886505257896625	0.006010242073411942	-0.11471139621789711	0.577394894319383	0.016924313546150316	-0.10581230614681614	0.5588200230977577	0.02912809657313531	-0.09457745777532861	0.5213867970056576	0.022766062777425322	-0.08068505178068669	0.5833298581454999	-0.005030953366381152	-0.09424723923864581	0.5761307825206935	0.005463152565340801	-0.08279966085533186	0.5622982745685998	0.015635610743831685	-0.07071682851510136	0.5277232362522333	0.009642762047000764	-0.06237800720039022	0.462283081001861	-0.023011742144276925	-0.051989820119430985
13	0.4666666666666647	0.5272963325410428	-0.01538423095517627	-0.1490669663109973	0.5101797314390054	-0.019306696701300807	-0.13424683712180946	0.4829077463245637	-0.025935178247808333	-0.12078867750374589	0.4758434870045761	-0.027727449184014374	-0.07677988286959125	0.5682435694187563	0.0179065940016524	-0.15453044531220478	0.5524037637158941	0.023317880707591443	-0.1476153508456265	0.5301005735485655	0.027928565072618206	-0.13697020495437262	0.49316318444453944	0.02206121942750705	-0.11660259254499677	0.586372862873607	0.017598149763418225	-0.14026252535426353	0.5710686525251178	0.022692440795974322	-0.13202666811382913	0.5461872600475534	0.029890721830284628	-0.11866588188963967	0.5069037473388239	0.02785259049474298	-0.0974809917336304	0.5886088844394888	0.005898340437315075	-0.11469509052848298	0.5773952801519254	0.016867582522721913	-0.10581078937680627	0.5588371838389691	0.029093996293764857	-0.09457282485745094	0.5214005338259028	0.022750859747199592	-0.0806810039346626	0.5833039500711779	-0.0050986122916406584	-0.0942365466848758	0.5761308659677081	0.005424569479448693	-0.0827993481705035	0.5623171439420348	0.015609427894096473	-0.07070547526431659	0.5277428620923839	0.009605470764729729	-0.06237150955946569	0.4622830810018608	-0.023011742144276925	-0.051989820119430985
14	0.4999999999999978	0.5273180227436901	-0.015387035823077766	-0.14904060975624872	0.5101909815869979	-0.01932839708923717	-0.13423756504961526	0.48291859592885433	-0.025958990771780877	-0.12078125768353237	0.4758538479156136	-0.027738862181465596	-0.07677203827129553	0.5682495030817619	0.017518208655798007	-0.15441685998332116	0.5524273653988009	0.023036911017002115	-0.14754635174958325	0.5301348507005479	0.027789364954477147	-0.136941267921515	0.4931548016878732	0.022049473902806427	-0.11661478963000738	0.5863636670941247	0.017394449492833308	-0.140215797143313	0.5710698411096974	0.0225408326351616	-0.13199304655057237	0.5461971260366425	0.029794620785058235	-0.11864613108777533	0.5068987578767034	0.02785854434375379	-0.0974792279373542	0.5885533084136796	0.005776637139011553	-0.11466878181009238	0.5773698885189422	0.016787951295446857	-0.10579848981905393	0.5588403302616527	0.029063839580187212	-0.09456737159288026	0.5213955141400259	0.022757453433676966	-0.08068082870457777	0.5833006689785216	-0.005146997763345262	-0.0942086720034212	0.5761362954582118	0.0053892091547425025	-0.08277800728780982	0.5623336163222417	0.015590747220475931	-0.07068558450480855	0.5277568935262039	0.009578496226793187	-0.062367740452716036	0.4622830810018609	-0.023011742144276925	-0.051989820119430985
15	0.533333333333331	0.5273926119600718	-0.015412224429955268	-0.1489921042741595	0.5102450027826573	-0.0193619592688975	-0.13421512575347733	0.48297319600531596	-0.026003180769802126	-0.12076288682922098	0.4758746261329184	-0.027753180602261063	-0.07675791203826027	0.5682830038650838	0.017075250952682586	-0.15427625802004552	0.5524770775681876	0.02270893566356702	-0.14746198693096818	0.5301966505713755	0.02762403688839521	-0.13690574774319797	0.49317080829881077	0.022026918008461793	-0.11662286436210423	0.586374540996373	0.01720206874702135	-0.14016875395096096	0.5710865291394069	0.022400460013368928	-0.13196793559525843	0.546226917345438	0.02973224124999907	-0.11863923590806602	0.5069225808834491	0.027837217884118193	-0.09747970040452697	0.5884932857337536	0.005624932331083077	-0.11461520927414554	0.5773497513158526	0.016690218590450834	-0.10576190025009652	0.5588445345055596	0.029013159260412258	-0.0945421826489864	0.5213864041131216	0.02278446601372841	-0.08065648202057624	0.5832951522005878	-0.005204875332835424	-0.09415613433078651	0.5761305845655774	0.005335861635495265	-0.08272976855824843	0.5623465492426062	0.015578057641681742	-0.07065045524225477	0.5277714449218196	0.009561589185013153	-0.062328933775801676	0.4622830810018609	-0.023011742144276925	-0.051989820119430985
16	0.5666666666666642	0.5274958915563716	-0.01543090744922715	-0.1489379288937604	0.5103276923906305	-0.019377155236205645	-0.13418394415033547	0.48305388521226045	-0.0260282970355169	-0.12074066498331143	0.4759004270595383	-0.027753824405377214	-0.07674361290305143	0.5683219864259866	0.016572311108172366	-0.15410443908194787	0.5525392775540704	0.022341021928280802	-0.14734958333675952	0.5302729744975209	0.027439955313029007	-0.13685089486953705	0.4931906904152359	0.022008555674588592	-0.11662615261633968	0.5863783444076274	0.016942962810922446	-0.14009423793019982	0.5711016470873328	0.02220585438244027	-0.13191349888714593	0.5462589583894091	0.0296376547449968	-0.11860866098399347	0.5069386831216158	0.027830831064163175	-0.09747103429480847	0.5884389339942921	0.005431613267337765	-0.11454610900555484	0.5773440671858677	0.01656021013348319	-0.10571105030206335	0.5588604992227882	0.028929892610265906	-0.09450709342166602	0.5213814928768633	0.022806928281767447	-0.08063070249484183	0.5832942105341123	-0.005264702389594311	-0.09408781407283795	0.5761384024999523	0.005291736200848551	-0.08267045817646429	0.5623603724182117	0.015554152641486518	-0.07060146008774237	0.5277784303119992	0.009558918609170908	-0.06229303664762226	0.4622830810018609	-0.023011742144276925	-0.051989820119430985
